<svg xmlns="http://www.w3.org/2000/svg" viewBox="0 0 640 360"><rect width="640" height="360" rx="28" fill="#efeaff"/><path d="M320 54c-135 0-237 84-237 176 0 52 42 78 88 78h31c27 0 35-35 13-49-24-16-4-51 26-44l80 19c119 29 236-32 236-108 0-42-58-72-237-72z" fill="#fff" stroke="#714bce" stroke-width="7"/><circle cx="187" cy="151" r="25" fill="#1688d8"/><circle cx="260" cy="111" r="25" fill="#ff8fa4"/><circle cx="340" cy="105" r="25" fill="#ffd36e"/><circle cx="417" cy="132" r="25" fill="#5de0b1"/><path d="m390 258 92-92 30 30-92 92-45 14z" fill="#193250"/></svg>
